<svg width="1600" height="900" viewBox="0 0 1600 900" fill="none" xmlns="http://www.w3.org/2000/svg">
<g clip-path="url(#clip0)">
<rect width="1600" height="900" fill="url(#paint0_radial)"/>
<rect width="1600" height="900" fill="black"/>
<path d="M1413.5 842.5V907H1089L801.5 900.5H498H170.5V833.5L498 764.5L801.5 741L1089 764.5L1413.5 842.5Z" fill="#C4C4C4"/>
<path d="M1089 764.5L1413.5 842.5V907H1089M1089 764.5V907M1089 764.5L801.5 741M1089 907L801.5 900.5M801.5 900.5V741M801.5 900.5H498M801.5 741L498 764.5M498 764.5V900.5M498 764.5L170.5 833.5V900.5H498" stroke="black"/>
<path d="M381.5 107.5L799.5 154.5L1220.5 107L1609 16V733.5V902H1412V861L1352 870L1054 794L801 773L534 794L239 870L184 861V902H-14.5V734.5L-10.5 11.5L381.5 107.5Z" fill="white"/>
<path d="M799.5 154.5L381.5 107.5M799.5 154.5L1220.5 107M799.5 154.5L801 639M381.5 107.5L-10.5 11.5L-14.5 734.5M381.5 107.5L382 670M-14.5 734.5L382 670M-14.5 734.5L239 840M-14.5 734.5V902H184V861L239 870M382 670L801 639M382 670L534 767M801 639L1220.5 670.5M801 639V749M1220.5 670.5L1609 733.5M1220.5 670.5V107M1220.5 670.5L1054 767M1609 733.5V16L1220.5 107M1609 733.5L1352 840M1609 733.5V902H1412V861L1352 870M801 749L534 767M801 749L1054 767M801 749V773M534 767L239 840M534 767V794M239 840V870M1054 767L1352 840M1054 767V794M1352 840V870M1352 870L1054 794M1054 794L801 773M801 773L534 794M534 794L239 870" stroke="black"/>
</g>
<defs>
<radialGradient id="paint0_radial" cx="0" cy="0" r="1" gradientUnits="userSpaceOnUse" gradientTransform="translate(800 450) rotate(90) scale(450 800)">
<stop stop-color="#C9C9C9"/>
<stop offset="1" stop-color="#727272"/>
</radialGradient>
<clipPath id="clip0">
<rect width="1600" height="900" fill="white"/>
</clipPath>
</defs>
</svg>
